<svg xmlns="http://www.w3.org/2000/svg" style="display: none;">
  <!-- Logo Icon -->
<symbol id="logo" viewBox="0 0 375 375">
  <path fill="#730a75" d="M156.355 187.176a31.91 31.91 0 0 1 6.907-13.317c.402-.46.816-.906 1.238-1.34.125-.128.254-.253.383-.374.308-.31.617-.61.933-.903.141-.129.282-.254.426-.375.324-.293.653-.574.985-.844.128-.105.253-.203.382-.304.391-.313.79-.614 1.192-.903l.207-.148a31.916 31.916 0 0 1 6.465-3.52c10.808-4.351 23.613-2.644 33.015 5.52a31.926 31.926 0 0 1 10.637 19.144l20.664 17.938c4.656-18.992-1.21-39.86-16.996-53.563-18.652-16.19-45.262-17.273-64.93-4.324l-26.597-23.09c41.898-.144 105.773 6.07 145.617 40.66a93.455 93.455 0 0 1 25.805 36.485c-3.997-23.86-15.997-46.523-35.692-63.621-72.773-63.176-215.332-44-215.332-44l104.691 90.879"/>
  <path fill="#56b51b" d="m236.203 217.867-17.613-15.289a31.91 31.91 0 0 1-6.906 13.317c-.403.46-.817.906-1.239 1.34-.125.128-.254.253-.382.378-.31.305-.618.606-.934.899-.14.129-.281.254-.426.379a28.88 28.88 0 0 1-1.363 1.144c-.395.313-.793.613-1.2.903-.066.05-.132.101-.202.148a31.738 31.738 0 0 1-6.47 3.52c-10.808 4.351-23.605 2.644-33.011-5.52a31.926 31.926 0 0 1-10.637-19.145l-20.664-17.937c-4.656 18.992 1.211 39.86 16.996 53.562 18.653 16.192 45.262 17.278 64.926 4.329l26.602 23.09c-41.899.14-105.774-6.075-145.618-40.665a93.455 93.455 0 0 1-25.804-36.484c3.992 23.86 15.996 46.527 35.691 63.621 72.774 63.176 215.332 44 215.332 44l-87.078-75.59"/>
  <path d="M188.453 177.191a1.225 1.225 0 0 0-1.066-.625c-.442 0-.848.239-1.067.625l-17.246 30.352a1.273 1.273 0 0 0 0 1.25 1.23 1.23 0 0 0 1.067.625h34.5c.68 0 1.23-.559 1.23-1.25 0-.277-.09-.531-.238-.738Zm-16.18 29.723 15.114-26.594 15.11 26.594Z"/>
  <path d="M183.113 192.195c3.434-2.398 8.215-1.484 10.676 2.043 2.461 3.524 1.672 8.325-1.762 10.723-3.433 2.394-8.21 1.48-10.672-2.043-2.46-3.523-1.675-8.324 1.758-10.723"/>
  <path fill="#fff" d="M185.645 197.746c1.43-.996 3.421-.617 4.445.852 1.027 1.468.7 3.468-.735 4.468-1.43 1-3.417.618-4.445-.851-1.023-1.469-.695-3.469.735-4.469"/>
  <path fill="#fff" d="M188.137 193.04c.715-.497 1.71-.31 2.222.425.512.734.348 1.734-.367 2.234s-1.71.309-2.222-.426c-.512-.734-.348-1.734.367-2.234"/>
</symbol>
  <!-- Logo Icon 2-->
<symbol id="swin-logo2" viewBox="0 0 45 45">
  <path fill="#fff" d="M-4.5-4.5h54v54h-54z"/>
  <path fill="#fff" d="M-4.5-4.5h54v54h-54z"/>
  <path fill="#730a75" d="M17.633 21.3a4.965 4.965 0 0 1 1.273-2.288l.059-.059c.047-.047.094-.094.144-.14.024-.02.043-.04.067-.06.05-.042.101-.089.152-.128a.394.394 0 0 0 .063-.05c.058-.048.12-.095.183-.141.012-.004.024-.016.035-.02a5.001 5.001 0 0 1 7.82 3.297l3.227 2.8a8.405 8.405 0 0 0-2.652-8.359 8.418 8.418 0 0 0-10.137-.675l-4.152-3.606c6.543-.02 16.512.95 22.73 6.348a14.554 14.554 0 0 1 4.028 5.695 16.764 16.764 0 0 0-5.57-9.93c-11.36-9.863-33.61-6.867-33.61-6.867l16.34 14.184"/>
  <path fill="#56b51b" d="m30.098 26.094-2.75-2.387a4.989 4.989 0 0 1-1.078 2.078c-.063.07-.13.14-.196.207l-.058.059a1.63 1.63 0 0 1-.145.14c-.023.02-.043.04-.066.059-.051.047-.102.09-.157.133l-.058.047c-.059.05-.121.097-.188.14a4.965 4.965 0 0 1-1.04.574 5.001 5.001 0 0 1-5.151-.863 4.953 4.953 0 0 1-1.66-2.988l-3.227-2.8a8.412 8.412 0 0 0 2.653 8.362c2.91 2.528 7.066 2.696 10.132.676l4.153 3.602c-6.54.023-16.508-.946-22.727-6.344a14.61 14.61 0 0 1-4.027-5.695 16.764 16.764 0 0 0 5.57 9.93c11.36 9.859 33.61 6.867 33.61 6.867l-13.59-11.797"/>
  <path d="M22.762 19.746a.199.199 0 0 0-.172-.101c-.07 0-.137.039-.172.101l-2.79 4.852a.201.201 0 0 0 0 .199.195.195 0 0 0 .173.098h5.578a.198.198 0 0 0 .16-.317Zm-2.617 4.75 2.445-4.25 2.441 4.25Z"/>
  <path d="M21.719 22.043c.508-.36 1.242-.184 1.64.387.399.57.309 1.32-.199 1.675-.512.356-1.246.184-1.644-.386-.399-.57-.309-1.32.203-1.676"/>
  <path fill="#fff" d="M22.137 22.93c.215-.149.52-.075.687.164.164.234.13.547-.086.695-.21.148-.52.078-.683-.16-.168-.238-.13-.55.082-.7"/>
  <path fill="#fff" d="M22.488 22.207c.11-.074.262-.039.344.078.082.121.063.277-.043.352-.105.074-.258.035-.34-.082-.086-.117-.066-.274.04-.348"/>
</symbol>
</svg>
