<svg xmlns="http://www.w3.org/2000/svg" width="500" height="500" version="1.0" viewBox="0 0 375 375"><defs><clipPath id="a"><path d="M51 93h252v115H51Zm0 0"/></clipPath><clipPath id="b"><path d="m122.48 14.7 252.508 219.195-122.574 141.199L-.094 155.898Zm0 0"/></clipPath><clipPath id="c"><path d="m122.48 14.7 252.508 219.195-122.574 141.199L-.094 155.898Zm0 0"/></clipPath><clipPath id="d"><path d="M72 182h252v115H72Zm0 0"/></clipPath><clipPath id="e"><path d="m122.48 14.7 252.508 219.195-122.574 141.199L-.094 155.898Zm0 0"/></clipPath><clipPath id="f"><path d="m122.48 14.7 252.508 219.195-122.574 141.199L-.094 155.898Zm0 0"/></clipPath><clipPath id="g"><path d="M168.836 176.566h37.059v32.848h-37.06Zm0 0"/></clipPath><clipPath id="h"><path d="M179 190h17v17h-17Zm0 0"/></clipPath><clipPath id="i"><path d="m185.84 209.344-9.16-13.121 12.43-8.68 9.16 13.121Zm0 0"/></clipPath><clipPath id="j"><path d="m185.84 209.344-9.16-13.121 12.43-8.68 9.16 13.121Zm0 0"/></clipPath><clipPath id="k"><path d="m185.84 209.344-26.52-37.98 12.43-8.68 26.52 37.98Zm0 0"/></clipPath><clipPath id="l"><path d="m185.813 209.3-8.918-12.769 12.433-8.683 8.918 12.77Zm0 0"/></clipPath><clipPath id="m"><path d="M184 197h7v7h-7Zm0 0"/></clipPath><clipPath id="n"><path d="m185.84 209.344-9.16-13.121 12.43-8.68 9.16 13.121Zm0 0"/></clipPath><clipPath id="o"><path d="m185.84 209.344-9.16-13.121 12.43-8.68 9.16 13.121Zm0 0"/></clipPath><clipPath id="p"><path d="m185.84 209.344-26.52-37.98 12.43-8.68 26.52 37.98Zm0 0"/></clipPath><clipPath id="q"><path d="M187 192h4v4h-4Zm0 0"/></clipPath><clipPath id="r"><path d="m185.84 209.344-9.16-13.121 12.43-8.68 9.16 13.121Zm0 0"/></clipPath><clipPath id="s"><path d="m185.84 209.344-9.16-13.121 12.43-8.68 9.16 13.121Zm0 0"/></clipPath><clipPath id="t"><path d="m185.84 209.344-26.52-37.98 12.43-8.68 26.52 37.98Zm0 0"/></clipPath></defs><g clip-path="url(#a)"><g clip-path="url(#b)"><g clip-path="url(#c)"><path fill="#730a75" d="M156.355 187.176a31.91 31.91 0 0 1 6.907-13.317c.402-.46.816-.906 1.238-1.34.125-.128.254-.253.383-.374.308-.31.617-.61.933-.903.141-.129.282-.254.426-.375.324-.293.653-.574.985-.844.128-.105.253-.203.382-.304.391-.313.79-.614 1.192-.903l.207-.148a31.916 31.916 0 0 1 6.465-3.52c10.808-4.351 23.613-2.644 33.015 5.52a31.926 31.926 0 0 1 10.637 19.144l20.664 17.938c4.656-18.992-1.21-39.86-16.996-53.563-18.652-16.19-45.262-17.273-64.93-4.324l-26.597-23.09c41.898-.144 105.773 6.07 145.617 40.66a93.455 93.455 0 0 1 25.805 36.485c-3.997-23.86-15.997-46.523-35.692-63.621-72.773-63.176-215.332-44-215.332-44l104.691 90.879"/></g></g></g><g clip-path="url(#d)"><g clip-path="url(#e)"><g clip-path="url(#f)"><path fill="#56b51b" d="m236.203 217.867-17.613-15.289a31.91 31.91 0 0 1-6.906 13.317c-.403.46-.817.906-1.239 1.34-.125.128-.254.253-.382.378-.31.305-.618.606-.934.899-.14.129-.281.254-.426.379a28.88 28.88 0 0 1-1.363 1.144c-.395.313-.793.613-1.2.903-.066.05-.132.101-.202.148a31.738 31.738 0 0 1-6.47 3.52c-10.808 4.351-23.605 2.644-33.011-5.52a31.926 31.926 0 0 1-10.637-19.145l-20.664-17.937c-4.656 18.992 1.211 39.86 16.996 53.562 18.653 16.192 45.262 17.278 64.926 4.329l26.602 23.09c-41.899.14-105.774-6.075-145.618-40.665a93.455 93.455 0 0 1-25.804-36.484c3.992 23.86 15.996 46.527 35.691 63.621 72.774 63.176 215.332 44 215.332 44l-87.078-75.59"/></g></g></g><g clip-path="url(#g)"><path d="M188.453 177.191a1.225 1.225 0 0 0-1.066-.625c-.442 0-.848.239-1.067.625l-17.246 30.352a1.273 1.273 0 0 0 0 1.25 1.23 1.23 0 0 0 1.067.625h34.5c.68 0 1.23-.559 1.23-1.25 0-.277-.09-.531-.238-.738Zm-16.18 29.723 15.114-26.594 15.11 26.594Zm0 0"/></g><g clip-path="url(#h)"><g clip-path="url(#i)"><g clip-path="url(#j)"><g clip-path="url(#k)"><g clip-path="url(#l)"><path d="M183.113 192.195c3.434-2.398 8.215-1.484 10.676 2.043 2.461 3.524 1.672 8.325-1.762 10.723-3.433 2.394-8.21 1.48-10.672-2.043-2.46-3.523-1.675-8.324 1.758-10.723"/></g></g></g></g></g><g clip-path="url(#m)"><g clip-path="url(#n)"><g clip-path="url(#o)"><g clip-path="url(#p)"><path fill="#fff" d="M185.645 197.746c1.43-.996 3.421-.617 4.445.852 1.027 1.468.7 3.468-.735 4.468-1.43 1-3.417.618-4.445-.851-1.023-1.469-.695-3.469.735-4.469"/></g></g></g></g><g clip-path="url(#q)"><g clip-path="url(#r)"><g clip-path="url(#s)"><g clip-path="url(#t)"><path fill="#fff" d="M188.137 193.04c.715-.497 1.71-.31 2.222.425.512.734.348 1.734-.367 2.234s-1.71.309-2.222-.426c-.512-.734-.348-1.734.367-2.234"/></g></g></g></g></svg>