<svg xmlns="http://www.w3.org/2000/svg" width="60" height="60" version="1.0" viewBox="0 0 45 45"><defs><clipPath id="a"><path d="M1 6h40v19H1Zm0 0"/></clipPath><clipPath id="b"><path d="m12.348-5.621 39.644 34.414-19.176 22.09-39.644-34.418Zm0 0"/></clipPath><clipPath id="c"><path d="m12.348-5.621 39.644 34.414-19.176 22.09-39.644-34.418Zm0 0"/></clipPath><clipPath id="d"><path d="M4 20h40v19H4Zm0 0"/></clipPath><clipPath id="e"><path d="m12.348-5.621 39.644 34.414-19.176 22.09-39.644-34.418Zm0 0"/></clipPath><clipPath id="f"><path d="m12.348-5.621 39.644 34.414-19.176 22.09-39.644-34.418Zm0 0"/></clipPath><clipPath id="g"><path d="M19.586 19.645h6v5.25h-6Zm0 0"/></clipPath><clipPath id="h"><path d="M21 21h3v4h-3Zm0 0"/></clipPath><clipPath id="i"><path d="m22.242 24.762-1.285-1.848 1.844-1.285 1.289 1.844Zm0 0"/></clipPath><clipPath id="j"><path d="M22.242 24.762 20.527 22.3l1.844-1.29 1.719 2.462Zm0 0"/></clipPath><clipPath id="k"><path d="m22.242 24.762-4.293-6.153 1.844-1.285 4.297 6.149Zm0 0"/></clipPath><clipPath id="l"><path d="m22.234 24.75-1.441-2.066 1.848-1.29 1.441 2.067Zm0 0"/></clipPath><clipPath id="m"><path d="M21 22h2v2h-2Zm0 0"/></clipPath><clipPath id="n"><path d="m22.242 24.762-1.285-1.848 1.844-1.285 1.289 1.844Zm0 0"/></clipPath><clipPath id="o"><path d="M22.242 24.762 20.527 22.3l1.844-1.29 1.719 2.462Zm0 0"/></clipPath><clipPath id="p"><path d="m22.242 24.762-4.293-6.153 1.844-1.285 4.297 6.149Zm0 0"/></clipPath><clipPath id="q"><path d="M22 22h1v1h-1Zm0 0"/></clipPath><clipPath id="r"><path d="m22.242 24.762-1.285-1.848 1.844-1.285 1.289 1.844Zm0 0"/></clipPath><clipPath id="s"><path d="M22.242 24.762 20.527 22.3l1.844-1.29 1.719 2.462Zm0 0"/></clipPath><clipPath id="t"><path d="m22.242 24.762-4.293-6.153 1.844-1.285 4.297 6.149Zm0 0"/></clipPath></defs><path fill="#fff" d="M-4.5-4.5h54v54h-54z"/><path fill="#fff" d="M-4.5-4.5h54v54h-54z"/><g clip-path="url(#a)"><g clip-path="url(#b)"><g clip-path="url(#c)"><path fill="#730a75" d="M17.633 21.3a4.965 4.965 0 0 1 1.273-2.288l.059-.059c.047-.047.094-.094.144-.14.024-.02.043-.04.067-.06.05-.042.101-.089.152-.128a.394.394 0 0 0 .063-.05c.058-.048.12-.095.183-.141.012-.004.024-.016.035-.02a5.001 5.001 0 0 1 7.82 3.297l3.227 2.8a8.405 8.405 0 0 0-2.652-8.359 8.418 8.418 0 0 0-10.137-.675l-4.152-3.606c6.543-.02 16.512.95 22.73 6.348a14.554 14.554 0 0 1 4.028 5.695 16.764 16.764 0 0 0-5.57-9.93c-11.36-9.863-33.61-6.867-33.61-6.867l16.34 14.184"/></g></g></g><g clip-path="url(#d)"><g clip-path="url(#e)"><g clip-path="url(#f)"><path fill="#56b51b" d="m30.098 26.094-2.75-2.387a4.989 4.989 0 0 1-1.078 2.078c-.063.07-.13.14-.196.207l-.058.059a1.63 1.63 0 0 1-.145.14c-.023.02-.043.04-.066.059-.051.047-.102.09-.157.133l-.058.047c-.059.05-.121.097-.188.14a4.965 4.965 0 0 1-1.04.574 5.001 5.001 0 0 1-5.151-.863 4.953 4.953 0 0 1-1.66-2.988l-3.227-2.8a8.412 8.412 0 0 0 2.653 8.362c2.91 2.528 7.066 2.696 10.132.676l4.153 3.602c-6.54.023-16.508-.946-22.727-6.344a14.61 14.61 0 0 1-4.027-5.695 16.764 16.764 0 0 0 5.57 9.93c11.36 9.859 33.61 6.867 33.61 6.867l-13.59-11.797"/></g></g></g><g clip-path="url(#g)"><path d="M22.762 19.746a.199.199 0 0 0-.172-.101c-.07 0-.137.039-.172.101l-2.79 4.852a.201.201 0 0 0 0 .199.195.195 0 0 0 .173.098h5.578a.198.198 0 0 0 .16-.317Zm-2.617 4.75 2.445-4.25 2.441 4.25Zm0 0"/></g><g clip-path="url(#h)"><g clip-path="url(#i)"><g clip-path="url(#j)"><g clip-path="url(#k)"><g clip-path="url(#l)"><path d="M21.719 22.043c.508-.36 1.242-.184 1.64.387.399.57.309 1.32-.199 1.675-.512.356-1.246.184-1.644-.386-.399-.57-.309-1.32.203-1.676"/></g></g></g></g></g><g clip-path="url(#m)"><g clip-path="url(#n)"><g clip-path="url(#o)"><g clip-path="url(#p)"><path fill="#fff" d="M22.137 22.93c.215-.149.52-.075.687.164.164.234.13.547-.086.695-.21.148-.52.078-.683-.16-.168-.238-.13-.55.082-.7"/></g></g></g></g><g clip-path="url(#q)"><g clip-path="url(#r)"><g clip-path="url(#s)"><g clip-path="url(#t)"><path fill="#fff" d="M22.488 22.207c.11-.074.262-.039.344.078.082.121.063.277-.043.352-.105.074-.258.035-.34-.082-.086-.117-.066-.274.04-.348"/></g></g></g></g></svg>